
<svg version="1.1" xmlns="http://www.w3.org/2000/svg" xmlns:xlink="http://www.w3.org/1999/xlink" x="0px" y="0px" viewBox="0 0 256 256" enable-background="new 0 0 256 256" xml:space="preserve">
<metadata> Svg Vector Icons : http://www.onlinewebfonts.com/icon </metadata>
<g><g><path fill="#000000" d="M99.7,54.3c18.2,0,33.8,11.3,40,27.4c6.4-7.9,16.1-13,27-13c18.7,0,33.9,14.7,34.7,33.2c0.3,0,0.5,0,0.8,0c17.3,0,31.3,14,31.3,31.3c0,17.3-14,31.3-31.3,31.3c-6.3,0-12.2-1.9-17.1-5.1c0.1,1.1,0.2,2.2,0.2,3.3c0,15.8-12.8,28.7-28.7,28.7c-11.2,0-21-6.5-25.7-15.9c-0.6,0.1-1.1,0.2-1.7,0.2c-3.3,14.9-16.6,26.1-32.5,26.1c-18.4,0-33.3-14.9-33.3-33.3c0-2,0.2-3.9,0.5-5.9c-3.3,1.2-6.7,1.8-10.4,1.8c-17.3,0-31.3-14-31.3-31.3c0-17.3,14-31.3,31.3-31.3c1.1,0,2.2,0.1,3.3,0.2c-0.2-1.6-0.3-3.2-0.3-4.8C56.8,73.5,76,54.3,99.7,54.3 M99.7,41.9c-7.5,0-14.7,1.5-21.6,4.4C71.6,49,65.7,53,60.6,58.1c-5.1,5.1-9.1,11-11.8,17.6c-2,4.7-3.3,9.6-3.9,14.7c-2.8,0.6-5.5,1.4-8.1,2.5c-5.2,2.2-9.9,5.3-13.9,9.4s-7.2,8.7-9.4,13.9c-2.3,5.4-3.4,11.1-3.4,17s1.2,11.6,3.4,17c2.2,5.2,5.3,9.9,9.4,13.9s8.7,7.2,13.9,9.4c4.9,2,10,3.2,15.3,3.4c0.6,3.3,1.5,6.4,2.8,9.5c2.3,5.4,5.6,10.3,9.8,14.5s9.1,7.5,14.5,9.8c5.6,2.4,11.6,3.6,17.8,3.6c5.3,0,10.5-0.9,15.5-2.7c4.8-1.7,9.3-4.3,13.2-7.5c2.8-2.3,5.3-4.8,7.4-7.6c0.6,0.4,1.1,0.8,1.7,1.1c6.5,4.1,14.1,6.4,21.9,6.4c5.5,0,10.9-1.1,16-3.2c4.9-2.1,9.3-5,13.1-8.8c3.8-3.8,6.7-8.2,8.8-13.1c0.3-0.8,0.7-1.6,0.9-2.4c2.2,0.4,4.5,0.5,6.8,0.5c5.9,0,11.6-1.2,17-3.4c5.2-2.2,9.9-5.3,13.9-9.4c4-4,7.2-8.7,9.4-13.9c2.3-5.4,3.4-11.1,3.4-17s-1.2-11.6-3.4-17c-2.2-5.2-5.3-9.9-9.4-13.9c-4-4-8.7-7.2-13.9-9.4c-2.3-1-4.7-1.8-7.2-2.3c-0.7-2.3-1.5-4.6-2.6-6.9c-2.5-5.4-5.9-10.2-10.2-14.3c-4.3-4.1-9.2-7.3-14.7-9.6c-5.7-2.3-11.7-3.5-17.9-3.5c-3.6,0-7.2,0.4-10.8,1.2c-3.4,0.8-6.8,2-9.9,3.5c-1.1,0.5-2.1,1.1-3.1,1.7c-3.3-4.2-7.3-7.9-11.7-11C122,45.3,111.1,41.9,99.7,41.9L99.7,41.9z"/></g></g>
</svg>